<svg height="512pt" viewBox="0 0 512 512" width="512pt" xmlns="http://www.w3.org/2000/svg"><path d="m437.019531 74.980469c-48.351562-48.351563-112.640625-74.980469-181.019531-74.980469s-132.667969 26.628906-181.019531 74.980469c-48.351563 48.351562-74.980469 112.640625-74.980469 181.019531s26.628906 132.667969 74.980469 181.019531c48.351562 48.351563 112.640625 74.980469 181.019531 74.980469s132.667969-26.628906 181.019531-74.980469c48.351563-48.351562 74.980469-112.640625 74.980469-181.019531s-26.628906-132.667969-74.980469-181.019531zm-181.019531 407.019531c-124.617188 0-226-101.382812-226-226s101.382812-226 226-226 226 101.382812 226 226-101.382812 226-226 226zm0 0"/><path d="m256 72.332031c-101.273438 0-183.667969 82.394531-183.667969 183.667969s82.394531 183.667969 183.667969 183.667969c19.027344 0 37.785156-2.902344 55.757812-8.621094l-9.097656-28.585937c-15.027344 4.78125-30.726562 7.207031-46.660156 7.207031-84.730469 0-153.667969-68.9375-153.667969-153.667969s68.9375-153.667969 153.667969-153.667969 153.667969 68.9375 153.667969 153.667969v62.679688c0 21.121093-17.1875 38.304687-38.308594 38.304687s-38.308594-17.183594-38.308594-38.304687v-146.597657h-30v15.300781c-13.730469-9.386718-30.015625-14.472656-46.84375-14.472656-45.816406 0-83.089843 37.273438-83.089843 83.089844s37.273437 83.089844 83.089843 83.089844c17.097657 0 33.363281-5.121094 47.105469-14.625 2.949219 34.964844 32.332031 62.519531 68.046875 62.519531 37.664063 0 68.304687-30.640625 68.304687-68.308594v-62.675781c.003907-101.273438-82.390624-183.667969-183.664062-183.667969zm.207031 236.757813c-29.273437 0-53.089843-23.816406-53.089843-53.089844s23.816406-53.089844 53.089843-53.089844c13.066407 0 25.617188 4.785156 35.351563 13.476563 4.695312 4.195312 8.554687 9.101562 11.496094 14.609375v49.992187c-2.394532 4.488281-5.402344 8.585938-8.972657 12.21875-10.066406 10.242188-23.515625 15.882813-37.875 15.882813zm0 0"/></svg>