<?xml version="1.0" encoding="iso-8859-1"?>
<!-- Generator: Adobe Illustrator 19.0.0, SVG Export Plug-In . SVG Version: 6.00 Build 0)  -->
<svg version="1.1" id="Capa_1" xmlns="http://www.w3.org/2000/svg" xmlns:xlink="http://www.w3.org/1999/xlink" x="0px" y="0px"
	 viewBox="0 0 512 512" style="enable-background:new 0 0 512 512;" xml:space="preserve">
<path style="fill:#E70C6A;" d="M512,256c0,68.38-26.63,132.67-74.98,181.02C388.67,485.37,324.38,512,256,512
	s-132.67-26.63-181.02-74.98S0,324.38,0,256S26.63,123.33,74.98,74.98S187.62,0,256,0s132.67,26.63,181.02,74.98
	C485.37,123.33,512,187.62,512,256z"/>
<path style="fill:#B40754;" d="M512,256c0,68.38-26.63,132.67-74.98,181.02C388.67,485.37,324.38,512,256,512V0
	c68.38,0,132.67,26.63,181.02,74.98C485.37,123.33,512,187.62,512,256z"/>
<g>
	<path style="fill:#EFE6DE;" d="M297.12,388.54l9.1,28.59c-16.2,5.16-33.08,7.86-50.22,8.04v-30
		C270.04,394.99,283.87,392.76,297.12,388.54z"/>
	<path style="fill:#EFE6DE;" d="M256,81.61c-0.65-0.01-1.29-0.01-1.94-0.01c-94.72,0-171.79,77.07-171.79,171.8
		c0,94.72,77.07,171.79,171.79,171.79c0.65,0,1.3,0,1.94-0.02c17.14-0.18,34.02-2.88,50.22-8.04l-9.1-28.59
		c-13.25,4.22-27.08,6.45-41.12,6.63c-0.65,0.02-1.29,0.02-1.94,0.02c-78.18,0-141.79-63.61-141.79-141.79
		c0-78.19,63.61-141.8,141.79-141.8c0.65,0,1.29,0,1.94,0.01c77.3,1.04,139.86,64.25,139.86,141.79v58.26
		c0,19.06-15.5,34.56-34.56,34.56c-19.05,0-34.55-15.5-34.55-34.56V175.39h-30v12.26c-12.11-7.84-26.18-12.21-40.75-12.53
		c-0.58-0.01-1.16-0.02-1.74-0.02c-43.18,0-78.3,35.12-78.3,78.3c0,43.17,35.12,78.3,78.3,78.3c0.58,0,1.16-0.01,1.74-0.02
		c14.86-0.32,29-4.77,41.17-12.78c3.61,32.2,30.99,57.32,64.13,57.32c35.6,0,64.56-28.96,64.56-64.56V253.4
		C425.86,159.32,349.84,82.65,256,81.61z M296.75,276.36c-2.16,3.99-4.85,7.64-8.04,10.88c-8.74,8.9-20.31,13.99-32.71,14.43
		c-0.58,0.02-1.16,0.03-1.74,0.03c-26.63,0-48.3-21.67-48.3-48.3c0-26.64,21.67-48.3,48.3-48.3c0.58,0,1.16,0.01,1.74,0.03
		c11.25,0.4,21.99,4.71,30.42,12.23c4.2,3.76,7.67,8.14,10.33,13.06V276.36z"/>
</g>
<path style="fill:#DECCBC;" d="M425.86,253.4v58.26c0,35.6-28.96,64.56-64.56,64.56c-33.14,0-60.52-25.12-64.13-57.32
	c-12.17,8.01-26.31,12.46-41.17,12.78v-30.01c12.4-0.44,23.97-5.53,32.71-14.43c3.19-3.24,5.88-6.89,8.04-10.88v-45.94
	c-2.66-4.92-6.13-9.3-10.33-13.06c-8.43-7.52-19.17-11.83-30.42-12.23v-30.01c14.57,0.32,28.64,4.69,40.75,12.53v-12.26h30v136.27
	c0,19.06,15.5,34.56,34.55,34.56c19.06,0,34.56-15.5,34.56-34.56V253.4c0-77.54-62.56-140.75-139.86-141.79v-30
	C349.84,82.65,425.86,159.32,425.86,253.4z"/>
<g>
</g>
<g>
</g>
<g>
</g>
<g>
</g>
<g>
</g>
<g>
</g>
<g>
</g>
<g>
</g>
<g>
</g>
<g>
</g>
<g>
</g>
<g>
</g>
<g>
</g>
<g>
</g>
<g>
</g>
</svg>
