<svg height="512" viewBox="0 0 64 64" width="512" xmlns="http://www.w3.org/2000/svg"><g id="Application"><rect fill="#fee9ab" height="58" rx="2" width="46" x="9" y="3"/><rect fill="#46f8ff" height="20" rx="2" width="20" x="13" y="17"/><path d="m29 37h-12a6 6 0 0 1 6-6 6.009 6.009 0 0 1 6 6z" fill="#9cdd05"/><path d="m27 25v2a4 4 0 0 1 -8 0v-2l4 1z" fill="#ffc477"/><path d="m27 25-4 1-4-1a4 4 0 1 1 8 0z" fill="#c0ab91"/><path d="m53 2h-42a3 3 0 0 0 -3 3v54a3 3 0 0 0 3 3h42a3 3 0 0 0 3-3v-54a3 3 0 0 0 -3-3zm1 57a1 1 0 0 1 -1 1h-42a1 1 0 0 1 -1-1v-54a1 1 0 0 1 1-1h42a1 1 0 0 1 1 1z"/><path d="m15 38h16a3 3 0 0 0 3-3v-16a3 3 0 0 0 -3-3h-16a3 3 0 0 0 -3 3v16a3 3 0 0 0 3 3zm5-11v-.72l2.758.69a.991.991 0 0 0 .484 0l2.758-.69v.72a3 3 0 0 1 -6 0zm.108-2.754a2.985 2.985 0 0 1 5.784 0l-2.892.723zm-2.008 11.754a5 5 0 0 1 9.8 0zm-4.1-17a1 1 0 0 1 1-1h16a1 1 0 0 1 1 1v16a1 1 0 0 1 -1 1h-1.08a7.011 7.011 0 0 0 -3.7-5.208 4.969 4.969 0 0 0 1.78-3.792v-2a5 5 0 0 0 -10 0v2a4.969 4.969 0 0 0 1.779 3.792 7.011 7.011 0 0 0 -3.699 5.208h-1.08a1 1 0 0 1 -1-1z"/><path d="m26 6h12v2h-12z"/><path d="m22 10h20v2h-20z"/><path d="m38 17h4v2h-4z"/><path d="m44 17h8v2h-8z"/><path d="m38 23h4v2h-4z"/><path d="m44 23h8v2h-8z"/><path d="m38 29h4v2h-4z"/><path d="m44 29h8v2h-8z"/><path d="m38 35h4v2h-4z"/><path d="m44 35h8v2h-8z"/><path d="m12 42h4v2h-4z"/><path d="m18 42h4v2h-4z"/><path d="m24 42h4v2h-4z"/><path d="m30 42h22v2h-22z"/><path d="m12 48h40v2h-40z"/><path d="m38 54h4v2h-4z"/><path d="m44 54h8v2h-8z"/></g></svg>